<svg xmlns="http://www.w3.org/2000/svg" width="130" height="130" viewBox="0 0 130 130">
  <g id="DollarIcon" transform="translate(-799 -845)">
    <circle id="Ellipse_6" data-name="Ellipse 6" cx="65" cy="65" r="65" transform="translate(799 845)" fill="#0692b2"/>
    <path id="Icon_material-attach-money" data-name="Icon material-attach-money" d="M31.954,36.9c-9.31-2.42-12.3-4.921-12.3-8.817,0-4.47,4.142-7.587,11.073-7.587,7.3,0,10.007,3.486,10.253,8.612H50.04c-.287-7.054-4.593-13.534-13.165-15.625V4.5h-12.3v8.858c-7.956,1.722-14.354,6.89-14.354,14.805,0,9.474,7.833,14.19,19.275,16.938,10.253,2.461,12.3,6.07,12.3,9.884,0,2.83-2.01,7.341-11.073,7.341-8.448,0-11.77-3.773-12.221-8.612H9.48C9.972,62.7,16.7,67.739,24.572,69.421v8.9h12.3V69.5c8-1.517,14.354-6.152,14.354-14.559C51.229,43.3,41.264,39.319,31.954,36.9Z" transform="translate(833.646 868.59)" fill="#fff"/>
  </g>
</svg>
