<svg xmlns="http://www.w3.org/2000/svg" width="130" height="130" viewBox="0 0 130 130">
  <g id="HappyFace" transform="translate(-1175 -845)">
    <circle id="Ellipse_6" data-name="Ellipse 6" cx="65" cy="65" r="65" transform="translate(1175 845)" fill="#0692b2"/>
    <path id="Icon_ionic-md-happy" data-name="Icon ionic-md-happy" d="M41.461,3.375A38.086,38.086,0,1,0,79.547,41.461,38.076,38.076,0,0,0,41.461,3.375Zm0,68.555A30.469,30.469,0,1,1,71.93,41.461,30.56,30.56,0,0,1,41.461,71.93Zm13.33-34.277a5.713,5.713,0,1,0-5.713-5.713A5.611,5.611,0,0,0,54.791,37.652Zm-26.66,0a5.713,5.713,0,1,0-5.713-5.713A5.61,5.61,0,0,0,28.131,37.652Zm13.33,24.756a20.751,20.751,0,0,0,19.424-13.33H22.037A20.751,20.751,0,0,0,41.461,62.408Z" transform="translate(1198.539 866.539)" fill="#fff"/>
  </g>
</svg>
