<svg xmlns="http://www.w3.org/2000/svg" width="130" height="130" viewBox="0 0 130 130">
  <g id="Leaf" transform="translate(-1551 -845)">
    <circle id="Ellipse_6" data-name="Ellipse 6" cx="65" cy="65" r="65" transform="translate(1551 845)" fill="#0692b2"/>
    <path id="Icon_awesome-leaf" data-name="Icon awesome-leaf" d="M59.508,1.058A1.7,1.7,0,0,0,56.425.927,18.684,18.684,0,0,1,40.093,10.46H31.376A20.924,20.924,0,0,0,10.457,31.379a21.543,21.543,0,0,0,.163,2.234c6.951-4.979,16.986-9.207,31.215-9.207a1.743,1.743,0,0,1,0,3.486c-27.391,0-39.005,16.79-41.577,23.1A3.491,3.491,0,0,0,6.72,53.639a28.664,28.664,0,0,1,7.834-9.871A20.873,20.873,0,0,0,33.61,52.179C50.716,50.936,62.755,35.6,62.755,16.812A39.62,39.62,0,0,0,59.508,1.058Z" transform="translate(1584.621 882.106)" fill="#fff"/>
  </g>
</svg>
